Normalized EMG Linear Envelopes
nRows=120
nColumns=4

endheader
time	 med_gas_r	  soleus_r	 tib_ant_r	
2.64819	  0.013484	  0.011637	  0.005236	
2.71976	  0.013263	  0.012287	  0.005392	
2.79133	  0.012915	  0.012888	  0.005309	
2.8629	  0.012441	  0.013263	  0.005009	
2.93448	  0.012007	  0.013311	  0.004648	
3.00605	  0.011868	  0.013150	  0.004345	
3.07762	  0.012078	  0.012991	  0.004182	
3.14919	  0.012308	  0.012999	  0.004205	
3.22077	  0.012284	  0.013128	  0.004368	
3.29234	  0.012298	  0.013131	  0.004565	
3.36391	  0.012875	  0.012877	  0.004730	
3.43548	  0.014090	  0.012528	  0.004884	
3.50706	  0.015290	  0.012342	  0.005050	
3.57863	  0.015619	  0.012540	  0.005190	
3.6502	  0.014912	  0.013256	  0.005268	
3.72177	  0.013667	  0.014240	  0.005339	
3.79335	  0.012360	  0.014865	  0.005468	
3.86492	  0.011353	  0.014781	  0.005582	
3.93649	  0.010953	  0.014334	  0.005494	
4.00806	  0.011156	  0.014123	  0.005119	
4.07964	  0.011710	  0.014322	  0.004609	
4.15121	  0.012377	  0.014571	  0.004219	
4.22278	  0.012919	  0.014431	  0.004113	
4.29435	  0.013167	  0.013797	  0.004313	
4.36593	  0.013162	  0.013012	  0.004749	
4.4375	  0.012989	  0.012705	  0.005266	
4.50907	  0.012647	  0.013292	  0.005595	
4.58065	  0.012107	  0.014474	  0.005405	
4.65222	  0.011343	  0.015242	  0.004496	
4.72379	  0.010511	  0.014720	  0.003084	
4.79536	  0.010371	  0.013512	  0.002267	
4.86694	  0.012575	  0.014419	  0.004781	
4.93851	  0.019281	  0.021643	  0.015016	
5.01008	  0.031611	  0.038650	  0.036080	
5.08165	  0.048784	  0.066366	  0.064787	
5.15323	  0.070349	  0.103696	  0.091718	
5.2248	  0.098081	  0.147590	  0.109138	
5.29637	  0.132509	  0.191216	  0.117278	
5.36794	  0.168589	  0.226624	  0.122355	
5.43952	  0.199739	  0.250805	  0.130668	
5.51109	  0.226758	  0.266005	  0.143854	
5.58266	  0.257269	  0.276065	  0.158516	
5.65423	  0.295768	  0.284925	  0.169694	
5.72581	  0.337009	  0.297980	  0.174333	
5.79738	  0.367833	  0.320901	  0.173499	
5.86895	  0.381450	  0.351218	  0.171355	
5.94052	  0.390715	  0.377794	  0.171565	
6.0121	  0.413975	  0.395313	  0.175647	
6.08367	  0.452032	  0.408599	  0.181779	
6.15524	  0.489112	  0.421177	  0.184587	
6.22681	  0.508379	  0.430380	  0.180207	
6.29839	  0.503184	  0.432199	  0.170893	
6.36996	  0.478354	  0.425726	  0.162588	
6.44153	  0.444071	  0.415093	  0.159461	
6.5131	  0.409582	  0.407172	  0.161909	
6.58468	  0.377765	  0.402721	  0.167445	
6.65625	  0.344755	  0.391478	  0.171707	
6.72782	  0.311288	  0.365512	  0.171790	
6.7994	  0.292809	  0.337906	  0.170271	
6.87097	  0.306523	  0.334771	  0.172769	
6.94254	  0.345343	  0.361288	  0.180514	
7.01411	  0.378313	  0.389208	  0.188241	
7.08569	  0.383764	  0.390631	  0.190889	
7.15726	  0.369786	  0.369396	  0.188201	
7.22883	  0.354624	  0.346308	  0.180840	
7.3004	  0.342203	  0.332099	  0.168287	
7.37198	  0.328903	  0.327199	  0.153386	
7.44355	  0.317113	  0.330257	  0.143036	
7.51512	  0.308793	  0.337023	  0.141504	
7.58669	  0.300298	  0.341691	  0.146904	
7.65827	  0.291233	  0.343514	  0.154461	
7.72984	  0.290756	  0.347315	  0.160412	
7.80141	  0.311802	  0.356967	  0.164199	
7.87298	  0.356104	  0.370893	  0.167064	
7.94456	  0.405634	  0.383085	  0.168392	
8.01613	  0.438290	  0.387356	  0.166305	
8.0877	  0.449556	  0.382504	  0.160739	
8.15927	  0.447079	  0.371829	  0.154119	
8.23085	  0.433755	  0.356654	  0.151017	
8.30242	  0.410984	  0.336021	  0.155369	
8.37399	  0.386699	  0.314851	  0.164411	
8.44556	  0.369028	  0.304811	  0.169278	
8.51714	  0.359795	  0.309819	  0.165400	
8.58871	  0.355778	  0.318182	  0.156928	
8.66028	  0.353129	  0.319385	  0.149322	
8.73185	  0.353342	  0.317298	  0.144149	
8.80343	  0.363054	  0.317130	  0.141600	
8.875	  0.387219	  0.316598	  0.143032	
8.94657	  0.425542	  0.318285	  0.149536	
9.01815	  0.469152	  0.334115	  0.159806	
9.08972	  0.501782	  0.370765	  0.170211	
9.16129	  0.516234	  0.417891	  0.175832	
9.23286	  0.520253	  0.453449	  0.173221	
9.30444	  0.519573	  0.461526	  0.164281	
9.37601	  0.513713	  0.446596	  0.155171	
9.44758	  0.504094	  0.426536	  0.150831	
9.51915	  0.490090	  0.411294	  0.152016	
9.59073	  0.469763	  0.397668	  0.156441	
9.6623	  0.447837	  0.383063	  0.160866	
9.73387	  0.430940	  0.370675	  0.161896	
9.80544	  0.420492	  0.363257	  0.157458	
9.87702	  0.414142	  0.362564	  0.149655	
9.94859	  0.408041	  0.369470	  0.143040	
10.0202	  0.396407	  0.375670	  0.138461	
10.0917	  0.370446	  0.362382	  0.132166	
10.1633	  0.322467	  0.317390	  0.121068	
10.2349	  0.256284	  0.250830	  0.106662	
10.3065	  0.189645	  0.186660	  0.094059	
10.378	  0.140273	  0.141257	  0.086744	
10.4496	  0.113021	  0.116508	  0.082912	
10.5212	  0.101757	  0.106468	  0.078141	
10.5927	  0.095795	  0.102194	  0.070339	
10.6643	  0.085057	  0.094661	  0.061263	
10.7359	  0.066369	  0.079512	  0.054322	
10.8075	  0.045160	  0.059497	  0.052006	
10.879	  0.029014	  0.041179	  0.054394	
10.9506	  0.020565	  0.029163	  0.058577	
11.0222	  0.017177	  0.023340	  0.059952	
11.0937	  0.015248	  0.020841	  0.054941	
11.1653	  0.012946	  0.019118	  0.044216	
